<svg width="446" height="446" viewBox="0 0 446 446" fill="none" xmlns="http://www.w3.org/2000/svg">
<path d="M446 0H0V446H446V0Z" fill="white"/>
<path d="M425.445 0.0490723H20.5555C9.33759 0.0490723 0.243683 9.14295 0.243683 20.3609V425.25C0.243683 436.468 9.33759 445.562 20.5555 445.562H425.445C436.662 445.562 445.756 436.468 445.756 425.25V20.3609C445.756 9.14295 436.662 0.0490723 425.445 0.0490723Z" fill="#2183D7"/>
<path d="M225.361 51.8571C214.558 51.8571 205.86 60.5061 205.86 71.2493V257.55L147.241 193.597C143.026 188.997 137.342 186.646 131.754 186.653C127.123 186.661 122.559 188.285 118.95 191.593C110.986 198.893 110.618 211.692 118.489 219.951L206.375 312.17C220.301 327.486 228.263 330.643 244.348 312.17L332.235 219.951C340.106 211.692 339.738 198.893 331.773 191.593C323.809 184.293 311.191 185.186 303.482 193.597L244.863 257.551V71.2493C244.863 60.5061 236.165 51.8571 225.361 51.8571Z" fill="white"/>
<path d="M382.278 257.262C370.385 257.262 360.81 265.919 360.81 276.672V346.967H89.9135V277.18C89.9135 266.427 80.3387 257.771 68.4452 257.771C56.5517 257.771 46.9769 266.427 46.9769 277.18V367.454C46.9769 367.858 46.992 368.259 47.0186 368.656C46.9906 369.047 46.9769 369.441 46.9769 369.838C46.9769 382.508 61.3157 392.708 79.1267 392.708H370.749C386.785 392.708 400.006 384.44 402.482 373.545C403.3 371.487 403.747 369.265 403.747 366.946V276.672C403.747 265.919 394.172 257.262 382.278 257.262Z" fill="#F9F9F9"/>
</svg>
